PathFileType	4	(X/Y/Z)	Gait_latera_markers.trc
DataRate	CameraRate	NumFrames	NumMarkers	Units	OrigDataRate	OrigDataStartFrame	OrigNumFrames
100	100	10	38	m	100	50	86
Frame#	Time	RASI			RPSI			LPSI			LASI			RTROCH			RTHI			RTHI2			RTHI3			RTHI4			RKNE			RKNEM			RTIB			RTIB2			RTIB3			RTIB4			RANK			RANKM			RHEE			RTOE			RTOEL			RTOEM			LTROCH			LTHI			LTHI2			LTHI3			LTHI4			LKNE			LKNEM			LTIB			LTIB2			LTIB3			LTIB4			LANK			LANKM			LHEE			LTOE			LTOEL			LTOEM
		X1	Y1	Z1	X2	Y2	Z2	X3	Y3	Z3	X4	Y4	Z4	X5	Y5	Z5	X6	Y6	Z6	X7	Y7	Z7	X8	Y8	Z8	X9	Y9	Z9	X10	Y10	Z10	X11	Y11	Z11	X12	Y12	Z12	X13	Y13	Z13	X14	Y14	Z14	X15	Y15	Z15	X16	Y16	Z16	X17	Y17	Z17	X18	Y18	Z18	X19	Y19	Z19	X20	Y20	Z20	X21	Y21	Z21	X22	Y22	Z22	X23	Y23	Z23	X24	Y24	Z24	X25	Y25	Z25	X26	Y26	Z26	X27	Y27	Z27	X28	Y28	Z28	X29	Y29	Z29	X30	Y30	Z30	X31	Y31	Z31	X32	Y32	Z32	X33	Y33	Z33	X34	Y34	Z34	X35	Y35	Z35	X36	Y36	Z36	X37	Y37	Z37	X38	Y38	Z38

50	0.490000	-0.291136	0.971391	-0.311198	-0.229548	1.005677	-0.493731	-0.134104	0.996946	-0.488373	-0.064591	0.975591	-0.303377	-0.350493	0.895269	-0.366763	-0.364397	0.776760	-0.331044	-0.360583	0.804931	-0.272949	-0.360258	0.734323	-0.229641	-0.365155	0.701472	-0.283984	-0.350521	0.565383	-0.221258	-0.239345	0.575343	-0.197956	-0.360480	0.431662	-0.248798	-0.345441	0.425670	-0.187537	-0.336854	0.338252	-0.197087	-0.353748	0.350307	-0.260126	-0.291859	0.136651	-0.286032	-0.232209	0.142832	-0.233620	-0.232931	0.085090	-0.329638	-0.332830	0.075704	-0.118467	-0.368739	0.051898	-0.184772	-0.275734	0.051752	-0.116773	-0.015985	0.907901	-0.389624	-0.019214	0.699772	-0.385293	-0.026889	0.694936	-0.326511	-0.044663	0.614043	-0.338395	-0.036500	0.615418	-0.401222	-0.055727	0.527684	-0.396976	-0.160378	0.547053	-0.378735	-0.053115	0.312053	-0.469816	-0.066129	0.310777	-0.406020	-0.084207	0.224306	-0.424531	-0.069478	0.232319	-0.485127	-0.102872	0.098294	-0.497508	-0.171151	0.123356	-0.454678	-0.161697	0.058077	-0.547520	-0.090067	0.058054	-0.320561	-0.049423	0.042712	-0.377592	-0.145200	0.053470	-0.329293
51	0.500000	-0.290965	0.969834	-0.299375	-0.230007	1.004241	-0.482035	-0.134622	0.995805	-0.477186	-0.064464	0.973879	-0.292503	-0.350563	0.893649	-0.354998	-0.364560	0.774829	-0.319104	-0.359483	0.802990	-0.261044	-0.358808	0.731929	-0.218561	-0.363613	0.699734	-0.272810	-0.347751	0.562764	-0.210285	-0.236092	0.572541	-0.188923	-0.360139	0.427918	-0.232192	-0.343066	0.425028	-0.170157	-0.336172	0.337395	-0.174683	-0.354038	0.345512	-0.238004	-0.294347	0.129671	-0.250709	-0.234264	0.138202	-0.198629	-0.236042	0.075179	-0.291255	-0.334194	0.078436	-0.079263	-0.370769	0.050776	-0.143657	-0.277173	0.054421	-0.076535	-0.015637	0.906717	-0.379075	-0.018817	0.699549	-0.378298	-0.026871	0.693711	-0.318765	-0.044909	0.613246	-0.331640	-0.036462	0.614659	-0.394454	-0.055769	0.527227	-0.392018	-0.160574	0.546143	-0.373716	-0.053222	0.312339	-0.467283	-0.066591	0.310596	-0.403752	-0.084241	0.223845	-0.422823	-0.069500	0.232776	-0.483443	-0.102975	0.098808	-0.497421	-0.171314	0.123408	-0.454227	-0.161734	0.058103	-0.547445	-0.090035	0.057805	-0.320443	-0.049366	0.042649	-0.377538	-0.145095	0.053293	-0.329048
52	0.510000	-0.290747	0.967832	-0.287583	-0.230693	1.002782	-0.470420	-0.135322	0.994445	-0.466015	-0.064522	0.972084	-0.281624	-0.350491	0.891789	-0.343181	-0.363990	0.773240	-0.307202	-0.358377	0.800573	-0.249538	-0.356830	0.729396	-0.207250	-0.363018	0.697243	-0.261562	-0.344758	0.559863	-0.199337	-0.232395	0.569042	-0.180155	-0.358072	0.423404	-0.215199	-0.340619	0.424397	-0.153684	-0.335072	0.336671	-0.152745	-0.354245	0.341460	-0.217175	-0.297200	0.123718	-0.215524	-0.236743	0.134975	-0.164115	-0.239202	0.066544	-0.252865	-0.335842	0.082389	-0.041035	-0.372875	0.050820	-0.103312	-0.278572	0.058604	-0.037000	-0.015636	0.905463	-0.368738	-0.018718	0.698737	-0.370523	-0.027003	0.692136	-0.310947	-0.045376	0.611736	-0.324907	-0.036360	0.614174	-0.388054	-0.055927	0.526451	-0.386706	-0.160477	0.545248	-0.368490	-0.053457	0.312452	-0.464550	-0.068650	0.308274	-0.401376	-0.084195	0.224022	-0.420854	-0.069454	0.233146	-0.481498	-0.103128	0.099320	-0.497153	-0.171380	0.123515	-0.453634	-0.161731	0.058225	-0.547417	-0.090065	0.057607	-0.320377	-0.049360	0.042609	-0.377481	-0.145595	0.052695	-0.329137
53	0.520000	-0.290603	0.965802	-0.275552	-0.231486	1.001066	-0.458592	-0.135931	0.993197	-0.454736	-0.063937	0.969837	-0.270578	-0.350660	0.889661	-0.331230	-0.363391	0.770619	-0.296110	-0.357144	0.797729	-0.238009	-0.355208	0.726096	-0.196535	-0.361632	0.694613	-0.250945	-0.341551	0.556509	-0.188907	-0.228499	0.565201	-0.171730	-0.356293	0.419612	-0.199408	-0.338216	0.423929	-0.138187	-0.334173	0.336105	-0.131703	-0.353847	0.337713	-0.196177	-0.300546	0.118999	-0.180699	-0.239365	0.133057	-0.130193	-0.242075	0.059457	-0.214410	-0.337373	0.087576	-0.003418	-0.375058	0.052097	-0.063511	-0.280630	0.064240	0.001391	-0.015535	0.903828	-0.358272	-0.018568	0.697520	-0.362392	-0.027372	0.690156	-0.303057	-0.045983	0.610133	-0.318025	-0.036302	0.613369	-0.381094	-0.056313	0.525939	-0.381105	-0.160462	0.544383	-0.362899	-0.053515	0.312429	-0.461348	-0.068809	0.307281	-0.398278	-0.084486	0.223201	-0.418950	-0.069573	0.233345	-0.479203	-0.103245	0.099817	-0.496534	-0.171498	0.123542	-0.452730	-0.161942	0.058464	-0.547345	-0.090057	0.057288	-0.320153	-0.049211	0.042657	-0.377363	-0.145550	0.052508	-0.328921
54	0.530000	-0.290597	0.963546	-0.263274	-0.232408	0.999279	-0.446617	-0.136830	0.991667	-0.443286	-0.064228	0.967792	-0.259612	-0.350921	0.887387	-0.319246	-0.363215	0.768146	-0.284398	-0.355987	0.794453	-0.226741	-0.352960	0.722309	-0.185661	-0.360762	0.691255	-0.240468	-0.338614	0.552713	-0.179606	-0.224350	0.560871	-0.163835	-0.355149	0.417015	-0.186314	-0.336263	0.423505	-0.123594	-0.333717	0.336185	-0.111745	-0.353225	0.334505	-0.176574	-0.303224	0.115707	-0.146360	-0.242231	0.132591	-0.097301	-0.245651	0.054036	-0.177008	-0.338957	0.094961	0.032626	-0.377392	0.055612	-0.025144	-0.282238	0.072057	0.038399	-0.015549	0.902224	-0.347941	-0.018626	0.696377	-0.354399	-0.028343	0.687711	-0.294728	-0.046223	0.608502	-0.311089	-0.036510	0.612457	-0.374159	-0.055978	0.524585	-0.375332	-0.160925	0.543335	-0.357297	-0.053682	0.312598	-0.458145	-0.069088	0.306586	-0.395131	-0.084778	0.222766	-0.416795	-0.069688	0.233589	-0.476959	-0.103673	0.100365	-0.496310	-0.171944	0.123543	-0.452100	-0.162077	0.058681	-0.547235	-0.089792	0.056818	-0.319576	-0.049568	0.042318	-0.377315	-0.145421	0.052376	-0.328635
55	0.540000	-0.290545	0.960926	-0.250870	-0.233399	0.997325	-0.434461	-0.137760	0.989900	-0.431582	-0.064160	0.965558	-0.248593	-0.351117	0.884850	-0.307014	-0.362882	0.764785	-0.273695	-0.354924	0.790407	-0.215511	-0.350951	0.717854	-0.175803	-0.359559	0.687513	-0.230552	-0.335610	0.548769	-0.170908	-0.220309	0.556464	-0.156588	-0.352324	0.412998	-0.171306	-0.334640	0.423312	-0.110318	-0.333535	0.336875	-0.093276	-0.352482	0.331709	-0.158203	-0.306313	0.114201	-0.113711	-0.244656	0.133525	-0.065585	-0.249177	0.050185	-0.140531	-0.340889	0.104282	0.067026	-0.379595	0.061593	0.011639	-0.283401	0.082548	0.074148	-0.015691	0.900728	-0.337609	-0.018526	0.695342	-0.346347	-0.028278	0.685812	-0.286785	-0.046162	0.606942	-0.304099	-0.036580	0.611679	-0.367108	-0.056177	0.523692	-0.369464	-0.161119	0.542273	-0.351478	-0.053912	0.312749	-0.454857	-0.069433	0.306148	-0.392085	-0.084860	0.222167	-0.414712	-0.070144	0.233875	-0.474723	-0.103806	0.100454	-0.495121	-0.172405	0.123559	-0.451358	-0.162192	0.058986	-0.547045	-0.090365	0.056234	-0.319801	-0.049744	0.041983	-0.377002	-0.145302	0.052105	-0.328344
56	0.550000	-0.290556	0.958344	-0.238202	-0.234865	0.995400	-0.422349	-0.138970	0.988192	-0.419987	-0.064292	0.963317	-0.237561	-0.351487	0.882233	-0.294417	-0.362806	0.761036	-0.263072	-0.354120	0.786018	-0.204788	-0.348708	0.712552	-0.165875	-0.358486	0.683250	-0.221279	-0.333089	0.544334	-0.162713	-0.216494	0.552204	-0.149421	-0.349969	0.409701	-0.158705	-0.333465	0.423392	-0.098018	-0.333681	0.337824	-0.076438	-0.351059	0.329151	-0.140914	-0.308279	0.113546	-0.081396	-0.246819	0.135685	-0.035478	-0.252718	0.047524	-0.104877	-0.342503	0.115804	0.099028	-0.380895	0.068752	0.048697	-0.284690	0.093749	0.107550	-0.015802	0.899023	-0.327096	-0.018679	0.694145	-0.338335	-0.028521	0.684320	-0.278348	-0.046122	0.605308	-0.297103	-0.036872	0.610702	-0.360006	-0.056438	0.522966	-0.363663	-0.160708	0.541325	-0.344791	-0.054436	0.312863	-0.451631	-0.069517	0.305490	-0.388788	-0.085195	0.222176	-0.412684	-0.070331	0.234572	-0.472583	-0.104022	0.101113	-0.494442	-0.172814	0.123526	-0.450521	-0.162302	0.059317	-0.546814	-0.090313	0.055875	-0.319552	-0.049827	0.042188	-0.377454	-0.145273	0.051891	-0.328077
57	0.560000	-0.290493	0.955571	-0.225445	-0.236244	0.993313	-0.409969	-0.140464	0.986301	-0.408332	-0.064000	0.960936	-0.226401	-0.351868	0.879456	-0.281553	-0.363026	0.757246	-0.252669	-0.353040	0.780624	-0.193107	-0.346677	0.706795	-0.156663	-0.357487	0.678739	-0.212313	-0.330970	0.540075	-0.154494	-0.213365	0.548225	-0.142329	-0.347967	0.406666	-0.146523	-0.332478	0.423153	-0.086398	-0.333499	0.339284	-0.059821	-0.350144	0.327345	-0.124380	-0.309485	0.114879	-0.051157	-0.248219	0.138448	-0.006450	-0.255678	0.046533	-0.070831	-0.343733	0.127817	0.129574	-0.383107	0.078287	0.081761	-0.286377	0.105239	0.138799	-0.015920	0.897364	-0.316778	-0.018699	0.693091	-0.330404	-0.028419	0.682553	-0.270314	-0.046796	0.602822	-0.290160	-0.037098	0.609944	-0.352984	-0.056673	0.522081	-0.357587	-0.161652	0.540022	-0.338695	-0.054798	0.313411	-0.448373	-0.069774	0.304934	-0.385548	-0.084666	0.221043	-0.410311	-0.071215	0.234384	-0.470109	-0.104259	0.101972	-0.493764	-0.173221	0.123699	-0.449678	-0.162490	0.059657	-0.546567	-0.090287	0.055509	-0.319318	-0.049861	0.042014	-0.376787	-0.145255	0.051729	-0.327803
58	0.570000	-0.290416	0.952630	-0.212352	-0.237809	0.991092	-0.397449	-0.142155	0.984364	-0.396682	-0.063918	0.958687	-0.215273	-0.352043	0.876510	-0.268353	-0.363556	0.753693	-0.242212	-0.352036	0.776062	-0.182509	-0.345310	0.700917	-0.147617	-0.357169	0.674315	-0.203950	-0.329246	0.535932	-0.145758	-0.209053	0.545551	-0.133711	-0.346383	0.403593	-0.134104	-0.331898	0.423132	-0.074897	-0.333466	0.340473	-0.044232	-0.349420	0.325487	-0.108261	-0.310102	0.117047	-0.022818	-0.249128	0.142702	0.021693	-0.255585	0.046820	-0.037684	-0.345543	0.139771	0.157233	-0.384989	0.088301	0.111652	-0.287970	0.117316	0.168144	-0.016002	0.895663	-0.306340	-0.018836	0.692033	-0.322378	-0.028369	0.680164	-0.262616	-0.046400	0.601877	-0.282694	-0.037400	0.609150	-0.345877	-0.057066	0.521207	-0.351103	-0.160934	0.539049	-0.331282	-0.055286	0.313583	-0.444782	-0.069896	0.304223	-0.382093	-0.084868	0.221062	-0.408229	-0.071001	0.235739	-0.467662	-0.104592	0.102787	-0.493026	-0.173589	0.123804	-0.448676	-0.162688	0.059951	-0.546240	-0.090244	0.055211	-0.319115	-0.049927	0.042122	-0.376742	-0.145582	0.051315	-0.327683
59	0.580000	-0.290358	0.949967	-0.199595	-0.239434	0.988939	-0.384903	-0.143711	0.982436	-0.384753	-0.063618	0.956302	-0.204164	-0.352240	0.873635	-0.254781	-0.364190	0.750566	-0.232030	-0.351843	0.771394	-0.171996	-0.344471	0.695277	-0.138655	-0.357511	0.669276	-0.194453	-0.328164	0.532429	-0.136409	-0.207420	0.542140	-0.125666	-0.345573	0.400541	-0.121784	-0.331452	0.422893	-0.063355	-0.333284	0.341781	-0.029046	-0.349122	0.323753	-0.092465	-0.309929	0.118627	0.003924	-0.249312	0.147407	0.048034	-0.254547	0.048364	-0.006761	-0.348090	0.150561	0.181968	-0.386413	0.096484	0.138440	-0.290280	0.129102	0.194793	-0.016318	0.893814	-0.295979	-0.019080	0.690938	-0.314195	-0.028107	0.678944	-0.254096	-0.046264	0.600265	-0.275258	-0.037589	0.608339	-0.338486	-0.057315	0.520592	-0.344682	-0.161026	0.537750	-0.324167	-0.055742	0.313954	-0.441054	-0.070174	0.304162	-0.378623	-0.085567	0.221287	-0.405630	-0.071479	0.236449	-0.465074	-0.105101	0.103857	-0.492333	-0.174019	0.124096	-0.447656	-0.163018	0.060281	-0.545849	-0.090346	0.054971	-0.319053	-0.049913	0.042332	-0.377087	-0.145230	0.051553	-0.327346
